<svg width="40" height="50" viewBox="0 0 40 50" fill="none" xmlns="http://www.w3.org/2000/svg">
<path d="M10 48.9865C9 48.6486 8 47.973 7.33333 46.6216C6.66667 45.9459 6 44.9324 5 43.5811C3.66667 41.5541 2.33333 38.8514 1.33333 36.1486C0.333334 33.1081 0 30.0676 0 27.027C0 23.6486 0.666666 20.9459 2 18.5811C3 16.5541 4.66667 15.2027 6.33333 13.8514C8 12.8378 10 12.1622 12 12.1622C12.6667 12.1622 13.3333 12.1622 14.3333 12.5C15 12.5 15.6667 12.8378 16.6667 13.1757C17.6667 13.5135 18.3333 13.8514 18.6667 13.8514C19.3333 14.1892 20 14.1892 20.3333 14.1892C20.6667 14.1892 21 14.1892 21.6667 13.8514C22 13.8514 22.6667 13.5135 23.3333 13.1757C24 12.8378 24.6667 12.5 25.3333 12.5C26 12.5 26.6667 12.1622 27.3333 12.1622C28 12.1622 29 11.8243 29.6667 12.1622C31 12.1622 32.3333 12.5 33.6667 13.1757C35.6667 13.8514 37.3333 15.5405 38.6667 17.2297C38.3333 17.2297 37.6667 17.5676 37.3333 18.2432C36.3333 19.2568 35.3333 20.2703 34.6667 21.2838C34 22.973 33.3333 24.6622 33.3333 26.6892C33.3333 29.0541 34 31.0811 35 32.7703C35.6667 34.1216 37 35.1351 38 35.8108C39 36.1487 39.6667 36.4865 40 36.8243C40 37.5 39.6667 38.5135 39.3333 38.8514C38.6667 40.8784 37.6667 42.2297 36.6667 43.9189C35.6667 45.2703 35 46.2838 34.6667 46.6216C33.6667 47.6351 33 48.6486 32 48.9865C31.3333 49.6622 30.3333 50 29 50C28.3333 50 27.6667 50 27 49.6622C26.6667 49.6622 26 49.3243 25.3333 48.9865C24.3333 48.6486 24 48.3108 23.3333 48.3108C22.6667 47.973 21.6667 47.973 21 47.973C20.3333 47.973 19.3333 47.973 18.6667 48.3108C18 48.3108 17.3333 48.6486 16.6667 48.9865C15.6667 49.3243 15.3333 49.6622 15 49.6622C14.3333 50 13.6667 50 13 50C12 50 11 49.6622 10 48.9865ZM24 10.473C22.6667 11.1486 21.3333 11.4865 20 11.4865C19.6667 10.1351 20 8.78378 20.6667 7.09459C21.3333 5.74324 21.6667 4.72973 22.6667 3.71622C23.6667 2.7027 24.6667 1.68919 26 1.01351C27.3333 0.337838 28.6667 0 30 0C30 1.35135 29.6667 2.7027 29.3333 4.39189C29 5.74324 28 6.75676 27.3333 7.77027C26.3333 9.12162 25.3333 9.7973 24 10.473Z" fill="#555555"/>
</svg>
