<svg width="27" height="27" viewBox="0 0 27 27" fill="none" xmlns="http://www.w3.org/2000/svg">
<path d="M26.0031 13.2589C26.0028 10.7784 25.2918 8.34989 23.9543 6.26094C22.6167 4.17199 20.7085 2.51007 18.4557 1.47188C16.203 0.433694 13.6999 0.0627365 11.2428 0.402942C8.7858 0.743147 6.4779 1.78026 4.59197 3.3915C2.70604 5.00273 1.32091 7.1206 0.601246 9.4944C-0.118414 11.8682 -0.142788 14.3985 0.530934 16.7858C1.20466 19.173 2.54851 21.3172 4.403 22.9645C6.2575 24.6119 8.54526 25.6933 10.9953 26.0809V17.0109H7.695V13.2589H10.9953V10.3979C10.9953 7.14588 12.9332 5.34786 15.8952 5.34786C16.8687 5.36141 17.8397 5.44599 18.801 5.60088V8.79586H17.1633C16.8843 8.75907 16.6005 8.78547 16.3332 8.87306C16.0658 8.96066 15.8219 9.10722 15.6188 9.30193C15.4158 9.49664 15.2591 9.73451 15.1603 9.99794C15.0616 10.2614 15.023 10.5437 15.048 10.8239V13.2589H18.6481L18.0734 17.0109H15.049V26.0809C18.1025 25.5979 20.8837 24.0412 22.8918 21.6907C24.8998 19.3402 26.003 16.3503 26.0031 13.2589Z" fill="#2260AC"/>
<path d="M18.0767 17.0117L18.6504 13.2587H15.0503V10.8237C15.0252 10.5434 15.0638 10.261 15.1626 9.99747C15.2614 9.73395 15.4179 9.49603 15.6211 9.3013C15.8243 9.10657 16.069 8.96002 16.3364 8.8725C16.6039 8.78497 16.8875 8.7587 17.1665 8.79565H18.8037V5.60165C17.8425 5.44616 16.871 5.36127 15.8975 5.34766C12.9335 5.34766 10.9976 7.14765 10.9976 10.3987V13.2587H7.69727V17.0117H10.9976V26.0817C11.6684 26.1867 12.3463 26.2392 13.0254 26.2387C13.7044 26.2383 14.3827 26.1858 15.0537 26.0817V17.0117H18.0767Z" fill="white"/>
</svg>
