<svg width="44" height="46" viewBox="0 0 44 46" fill="none" xmlns="http://www.w3.org/2000/svg">
<path d="M44 23.5227C44 21.8918 43.8571 20.3236 43.5918 18.8182H22.449V27.715H34.5306C34.0102 30.59 32.4286 33.0259 30.051 34.6568V40.4277H37.3061C41.551 36.4236 44 30.5273 44 23.5227Z" fill="#4285F4"/>
<path d="M22.449 46C28.5102 46 33.5918 43.9405 37.3061 40.4277L30.051 34.6568C28.0408 36.0368 25.4694 36.8523 22.449 36.8523C16.602 36.8523 11.6531 32.8064 9.88776 27.37H2.38776V33.3291C6.08163 40.8459 13.6735 46 22.449 46Z" fill="#34A853"/>
<path d="M9.88776 27.37C9.43878 25.99 9.18368 24.5159 9.18368 23C9.18368 21.4841 9.43878 20.01 9.88776 18.63V12.6709H2.38776C0.816327 15.876 -0.00138495 19.4133 1.76079e-06 23C1.76079e-06 26.7114 0.867349 30.2241 2.38776 33.3291L9.88776 27.37Z" fill="#FBBC05"/>
<path d="M22.449 9.14773C25.7449 9.14773 28.7041 10.3082 31.0306 12.5873L37.4694 5.99045C33.5816 2.27909 28.5 0 22.449 0C13.6735 0 6.08163 5.15409 2.38776 12.6709L9.88776 18.63C11.6531 13.1936 16.602 9.14773 22.449 9.14773Z" fill="#EA4335"/>
</svg>
