<svg width="26" height="26" viewBox="0 0 26 26" fill="none" xmlns="http://www.w3.org/2000/svg">
<path d="M0 10.9C0 7.1 5.96046e-08 5.2 0.7 3.7C1.4 2.4 2.4 1.4 3.7 0.7C5.2 5.96046e-08 7.1 0 10.9 0H14.3C18.1 0 20 5.96046e-08 21.5 0.7C22.8 1.4 23.8 2.4 24.5 3.7C25.2 5.2 25.2 7.1 25.2 10.9V14.3C25.2 18.1 25.2 20 24.5 21.5C23.8 22.8 22.8 23.8 21.5 24.5C20 25.2 18.1 25.2 14.3 25.2H10.9C7.1 25.2 5.2 25.2 3.7 24.5C2.4 23.8 1.4 22.8 0.7 21.5C5.96046e-08 20.1 0 18.2 0 14.4V10.9Z" fill="url(#paint0_radial_15_2758)"/>
<path d="M0 10.9C0 7.1 5.96046e-08 5.2 0.7 3.7C1.4 2.4 2.4 1.4 3.7 0.7C5.2 5.96046e-08 7.1 0 10.9 0H14.3C18.1 0 20 5.96046e-08 21.5 0.7C22.8 1.4 23.8 2.4 24.5 3.7C25.2 5.2 25.2 7.1 25.2 10.9V14.3C25.2 18.1 25.2 20 24.5 21.5C23.8 22.8 22.8 23.8 21.5 24.5C20 25.2 18.1 25.2 14.3 25.2H10.9C7.1 25.2 5.2 25.2 3.7 24.5C2.4 23.8 1.4 22.8 0.7 21.5C5.96046e-08 20.1 0 18.2 0 14.4V10.9Z" fill="url(#paint1_radial_15_2758)"/>
<path d="M12.6008 3.7998C10.2008 3.7998 9.90078 3.7998 9.00078 3.8998C8.10078 3.8998 7.40078 3.9998 6.90078 4.2998C6.30078 4.4998 5.80078 4.7998 5.30078 5.2998C4.80078 5.7998 4.50078 6.2998 4.30078 6.8998C4.00078 7.3998 3.90078 8.0998 3.90078 8.9998C3.90078 9.8998 3.80078 10.1998 3.80078 12.5998C3.80078 14.9998 3.80078 15.2998 3.90078 16.1998C3.90078 17.0998 4.10078 17.7998 4.30078 18.2998C4.50078 18.8998 4.80078 19.3998 5.30078 19.8998C5.80078 20.3998 6.30078 20.6998 6.90078 20.8998C7.50078 21.0998 8.10078 21.2998 9.00078 21.2998C9.90078 21.2998 10.2008 21.3998 12.6008 21.3998C15.0008 21.3998 15.3008 21.3998 16.2008 21.2998C17.1008 21.2998 17.8008 21.0998 18.3008 20.8998C18.9008 20.6998 19.4008 20.3998 19.9008 19.8998C20.4008 19.3998 20.7008 18.8998 20.9008 18.2998C21.1008 17.6998 21.3008 17.0998 21.3008 16.1998C21.3008 15.2998 21.4008 14.9998 21.4008 12.5998C21.4008 10.1998 21.4008 9.8998 21.3008 8.9998C21.3008 8.0998 21.1008 7.3998 20.9008 6.8998C20.7008 6.2998 20.4008 5.7998 19.9008 5.2998C19.4008 4.7998 18.9008 4.4998 18.3008 4.2998C17.7008 4.0998 17.1008 3.8998 16.2008 3.8998C15.3008 3.7998 15.0008 3.7998 12.6008 3.7998ZM11.9008 5.3998C12.1008 5.3998 12.4008 5.3998 12.7008 5.3998C15.1008 5.3998 15.3008 5.3998 16.3008 5.4998C17.2008 5.4998 17.6008 5.6998 17.9008 5.7998C18.3008 5.9998 18.6008 6.1998 18.9008 6.4998C19.2008 6.7998 19.4008 7.0998 19.6008 7.4998C19.7008 7.7998 19.9008 8.2998 19.9008 9.0998C19.9008 9.9998 20.0008 10.2998 20.0008 12.6998C20.0008 15.0998 20.0008 15.2998 19.9008 16.2998C19.9008 17.1998 19.7008 17.5998 19.6008 17.8998C19.4008 18.2998 19.2008 18.5998 18.9008 18.8998C18.6008 19.1998 18.3008 19.3998 17.9008 19.5998C17.6008 19.6998 17.1008 19.8998 16.3008 19.8998C15.4008 19.8998 15.1008 19.9998 12.7008 19.9998C10.3008 19.9998 10.1008 19.9998 9.10078 19.8998C8.20078 19.8998 7.80078 19.6998 7.50078 19.5998C7.10078 19.3998 6.80078 19.1998 6.50078 18.8998C6.20078 18.5998 6.00078 18.2998 5.80078 17.8998C5.70078 17.5998 5.50078 17.0998 5.50078 16.2998C5.50078 15.3998 5.40078 15.0998 5.40078 12.6998C5.40078 10.2998 5.40078 10.0998 5.50078 9.0998C5.50078 8.1998 5.70078 7.7998 5.80078 7.4998C6.00078 7.0998 6.20078 6.7998 6.50078 6.4998C6.80078 6.1998 7.10078 5.9998 7.50078 5.7998C7.80078 5.6998 8.30078 5.4998 9.10078 5.4998C9.90078 5.3998 10.2008 5.3998 11.9008 5.3998ZM17.4008 6.8998C16.8008 6.8998 16.3008 7.3998 16.3008 7.9998C16.3008 8.5998 16.8008 9.0998 17.4008 9.0998C18.0008 9.0998 18.5008 8.5998 18.5008 7.9998C18.4008 7.2998 18.0008 6.8998 17.4008 6.8998ZM12.6008 8.0998C10.1008 8.0998 8.10078 10.0998 8.10078 12.5998C8.10078 15.0998 10.1008 17.0998 12.6008 17.0998C15.1008 17.0998 17.1008 15.0998 17.1008 12.5998C17.2008 10.0998 15.2008 8.0998 12.6008 8.0998ZM12.6008 9.6998C14.2008 9.6998 15.5008 10.9998 15.5008 12.5998C15.5008 14.1998 14.2008 15.4998 12.6008 15.4998C11.0008 15.4998 9.70078 14.1998 9.70078 12.5998C9.70078 10.9998 11.0008 9.6998 12.6008 9.6998Z" fill="white"/>
<defs>
<radialGradient id="paint0_radial_15_2758" cx="0" cy="0" r="1" gradientUnits="userSpaceOnUse" gradientTransform="translate(6.73213 27.2359) rotate(-90) scale(25.0478 23.2964)">
<stop stop-color="#FEDD57"/>
<stop offset="0.1" stop-color="#FEDD57"/>
<stop offset="0.5" stop-color="#F15843"/>
<stop offset="1" stop-color="#BB469A"/>
</radialGradient>
<radialGradient id="paint1_radial_15_2758" cx="0" cy="0" r="1" gradientUnits="userSpaceOnUse" gradientTransform="translate(-3.98604 1.84638) rotate(78.6808) scale(11.1965 46.1524)">
<stop stop-color="#4270B7"/>
<stop offset="0.128" stop-color="#4270B7"/>
<stop offset="1" stop-color="#5E53A3" stop-opacity="0"/>
</radialGradient>
</defs>
</svg>
