<svg width="31" height="25" viewBox="0 0 31 25" fill="none" xmlns="http://www.w3.org/2000/svg">
<g clip-path="url(#clip0_15_2728)">
<path d="M9.6 24.9C21.1 24.9 27.4 15.3 27.4 7C27.4 6.7 27.4 6.5 27.4 6.2C28.6 5.3 29.7 4.2 30.5 3C29.4 3.5 28.2 3.8 26.9 4C28.2 3.2 29.2 2 29.7 0.5C28.5 1.2 27.1 1.7 25.7 2C24.6 0.8 22.9 0 21.1 0C17.6 0 14.8 2.8 14.8 6.3C14.8 6.8 14.9 7.3 15 7.7C9.8 7.4 5.2 4.9 2.1 1.1C1.5 2.1 1.2 3.1 1.3 4.3C1.3 6.5 2.4 8.4 4.1 9.5C3.1 9.5 2.1 9.2 1.3 8.7V8.8C1.3 11.8 3.5 14.4 6.3 15C5.8 15.1 5.2 15.2 4.6 15.2C4.2 15.2 3.8 15.2 3.4 15.1C4.2 17.6 6.5 19.4 9.3 19.5C7.2 21.2 4.4 22.2 1.5 22.2C1 22.2 0.5 22.2 0 22.1C2.8 23.8 6.1 24.9 9.6 24.9Z" fill="#439CD6"/>
</g>
<defs>
<clipPath id="clip0_15_2728">
<rect width="30.6" height="24.9" fill="white"/>
</clipPath>
</defs>
</svg>
