<svg width="33" height="23" viewBox="0 0 33 23" fill="none" xmlns="http://www.w3.org/2000/svg">
<g clip-path="url(#clip0_15_2764)">
<path d="M17.0007 22.5999L10.3007 22.4999C8.10072 22.4999 6.00072 22.4999 3.80072 22.0999C0.60072 21.3999 0.30072 18.1999 0.10072 15.4999C-0.19928 11.5999 0.000719965 7.69985 0.60072 3.89985C1.00072 1.79985 2.30072 0.499855 4.50072 0.399855C11.7007 -0.100145 19.0007 -0.100145 26.2007 0.199855C27.0007 0.199855 27.7007 0.299855 28.5007 0.499855C32.2007 1.19985 32.3007 4.79985 32.5007 7.89985C32.7007 10.9999 32.6007 14.1999 32.2007 17.2999C31.8007 19.8999 31.1007 21.9999 28.2007 22.1999C24.4007 22.3999 20.8007 22.5999 17.0007 22.5999C17.1007 22.5999 17.1007 22.5999 17.0007 22.5999ZM13.1007 16.0999C15.9007 14.4999 18.7007 12.8999 21.4007 11.2999C18.6007 9.69985 15.8007 8.09985 13.1007 6.49985V16.0999Z" fill="#ED2224"/>
</g>
<defs>
<clipPath id="clip0_15_2764">
<rect width="32.6" height="22.6" fill="white"/>
</clipPath>
</defs>
</svg>
