<svg width="124" height="70" viewBox="0 0 124 70" fill="none" xmlns="http://www.w3.org/2000/svg">
<path d="M79.2727 34.965C78.8517 35.3153 78.2904 35.6657 77.659 36.0861C73.5898 38.959 67.6262 40.991 59.9087 40.991H59.4175C51.7 40.991 45.7365 39.029 41.6672 36.0861C41.0358 35.6657 40.4745 35.2452 40.0535 34.965C40.4745 34.6146 41.0358 34.2643 41.6672 33.7738C45.7365 30.9009 51.7 28.8689 59.4175 28.8689H59.9087C67.6262 28.8689 73.5898 30.8308 77.659 33.7738C78.2904 34.2643 78.7816 34.6847 79.2727 34.965ZM119.123 11.1411C119.123 11.1411 115.615 8.47848 104.53 4.41441C94.7779 0.770771 87.4112 0 87.4112 0V21.021C87.4112 23.964 86.6394 26.6967 84.3242 29.7798C76.0453 26.7668 68.1875 24.8749 59.628 24.8749C51.0686 24.8749 43.2107 26.6967 34.9319 29.7798C32.6868 26.6967 31.8449 23.964 31.8449 21.021V0C31.8449 0 24.408 0.770771 14.6558 4.34434C3.64079 8.47848 0.132812 11.1411 0.132812 11.1411C0.623929 20.6707 8.9729 29.1491 22.0927 35.035C8.9729 40.8508 0.553769 49.3293 0.132812 58.8589C0.132812 58.8589 3.64078 61.5215 14.726 65.5856C24.4781 69.1592 31.8449 69.9299 31.8449 69.9299L31.7747 48.9089C31.7747 45.966 32.6166 43.2332 34.8617 40.1502C43.1406 43.1632 50.9984 44.985 59.5579 44.985C68.1173 44.985 75.9752 43.1632 84.254 40.1502C86.4991 43.2332 87.341 45.8959 87.341 48.9089V69.9299C87.341 69.9299 94.7077 69.1592 104.46 65.5856C115.545 61.5215 119.053 58.8589 119.053 58.8589C118.562 49.3293 110.213 40.8509 97.0932 34.965C110.283 29.1492 118.632 20.6707 119.123 11.1411ZM123.052 56.3363C123.052 56.8268 122.772 57.3173 122.28 57.4575C121.789 57.6677 121.298 57.5275 120.947 57.1772C120.597 56.8268 120.456 56.2663 120.667 55.8458C120.877 55.3554 121.298 55.0751 121.789 55.0751C122.14 55.0751 122.421 55.2152 122.631 55.4254C122.912 55.7057 123.052 55.986 123.052 56.3363ZM123.333 56.3363C123.333 55.7057 122.982 55.2152 122.421 54.9349C121.859 54.7247 121.228 54.7948 120.807 55.2853C120.386 55.7057 120.246 56.3363 120.456 56.8969C120.667 57.4575 121.228 57.8078 121.859 57.8078C122.631 57.8078 123.333 57.1772 123.333 56.3363Z" fill="#151515"/>
<path d="M122.139 57.0379H122.42L121.999 56.4072C122.069 56.4072 122.209 56.3372 122.279 56.2671C122.349 56.197 122.349 56.0569 122.349 55.9868C122.349 55.7766 122.209 55.5664 121.858 55.5664H121.367V56.9678H121.578V56.3372H121.718L122.139 57.0379ZM121.508 55.7766H121.718C121.928 55.7766 121.999 55.8467 121.999 55.9868C121.999 56.127 121.928 56.197 121.718 56.197H121.508C121.508 56.2671 121.508 55.7766 121.508 55.7766Z" fill="#151515"/>
</svg>
