<svg width="205" height="70" viewBox="0 0 205 70" fill="none" xmlns="http://www.w3.org/2000/svg">
<path d="M200.05 34.1815H188.234C187.059 31.3003 185.818 29.0084 179.224 29.0084C174.655 29.0084 172.696 30.9074 172.696 32.8064C172.696 34.9018 174.328 36.6043 179.355 37.7175L190.062 40.5987C197.047 42.4977 200.442 48.0636 200.442 53.8915C200.442 57.1656 199.724 61.0945 196.655 64.3686C194.37 66.7914 190.845 70 179.224 70C163.295 70 158.007 59.9158 158.007 53.7605H170.411C171.651 58.2133 174.655 59.9158 180.726 59.9158C184.904 59.9158 188.495 58.4097 188.495 55.2011C188.495 52.1235 185.883 51.0103 182.554 50.0935L174.067 47.8017C170.019 46.5575 166.625 45.5753 164.209 43.5454C157.942 38.1759 158.399 28.55 165.188 23.508C168.975 20.7577 172.827 19.3171 179.029 19.3171C186.275 19.3171 190.388 21.4125 193.652 23.6389C196.59 25.6034 199.985 30.449 200.05 34.1815ZM0.867188 0C0.997757 0.392891 25.5447 69.4107 25.5447 69.4107H40.2337L62.8222 11.9832H203.184L204.228 0H52.0502L33.3136 47.6052L16.4702 0H0.867188ZM122.231 44.5931L140.576 69.4107H152.066V20.3648H138.879V47.0814L122.296 20.3648H109.631V69.4107H122.296V44.5931H122.231ZM204.685 66.8569C204.685 65.4163 203.51 64.2376 202.074 64.2376C200.638 64.2376 199.463 65.4163 199.463 66.8569C199.463 68.2975 200.638 69.4761 202.074 69.4761C203.51 69.4761 204.751 68.2975 204.685 66.8569C204.751 66.8569 204.751 66.8569 204.685 66.8569ZM204.424 66.8569C204.424 68.101 203.38 69.1487 202.139 69.1487C200.899 69.1487 199.854 68.101 199.854 66.8569C199.854 65.6127 200.899 64.565 202.139 64.565C203.38 64.4995 204.424 65.5472 204.424 66.8569C204.424 66.8569 204.424 66.7914 204.424 66.8569ZM203.314 66.333C203.314 65.8092 202.857 65.4163 202.4 65.4163C202.335 65.4163 202.335 65.4163 202.27 65.4163H201.029V68.1665H201.617V67.2498H202.074L202.662 68.1665H203.38L202.727 67.1843C203.184 67.0533 203.38 66.7259 203.314 66.333ZM202.727 66.333C202.727 66.5295 202.531 66.7259 202.335 66.7259H202.27H201.682V65.9401H202.27C202.466 65.8746 202.727 66.0056 202.792 66.2021C202.727 66.2675 202.792 66.333 202.727 66.333ZM52.3767 69.4107H66.4781L69.0895 61.7493H87.6956L90.3722 69.4107H104.213L86.4552 20.3648H71.505L52.3767 69.4107ZM73.0066 52.8438L78.4905 36.5388L83.8438 52.8438H73.0066Z" fill="#151515"/>
</svg>
