<svg width="91" height="70" viewBox="0 0 91 70" fill="none" xmlns="http://www.w3.org/2000/svg">
<path d="M8.878 0.566889C8.31256 0.692675 7.74712 2.70525 6.55341 3.90022C5.73666 4.65494 4.73144 4.65494 4.166 5.59834C3.91469 5.9128 4.04034 6.60463 3.78904 7.17066C3.34925 8.42852 1.71575 8.55431 1.71575 9.81217C1.71575 11.1958 3.09794 11.5103 4.22882 12.5795C5.17122 13.3971 5.29688 13.9631 6.30211 14.2776C7.24451 14.592 8.62669 13.5858 9.88323 13.9631C10.9513 14.2776 11.9565 14.5292 12.2078 15.5354C12.4591 16.5417 12.2078 18.0512 10.9513 17.7996C10.5115 17.7996 8.62669 17.1078 6.42776 17.3593C3.66338 17.6738 0.522046 18.4914 0.333566 21.5732C0.207912 23.2713 2.28119 25.221 4.22882 24.9065C5.61101 24.6549 4.91992 22.9568 5.73666 22.1392C6.80472 21.1329 12.3963 25.6612 17.7366 25.6612C19.9355 25.6612 21.6318 25.0952 23.2653 23.3971C23.391 23.2713 23.6423 22.9568 23.8308 22.9568C24.0821 22.9568 24.3962 23.2084 24.5219 23.2713C28.7941 26.6675 31.9982 33.46 47.5793 33.5229C49.7782 33.5229 52.2913 34.5292 54.3646 36.3531C56.1865 38.0512 57.2546 40.6927 58.2598 43.3342C59.8933 47.3593 62.6577 51.1958 66.9299 55.4097C67.1812 55.6612 70.6367 58.3656 70.9508 58.4914C70.9508 58.4914 71.3278 59.1832 71.2021 59.4977C71.0765 62.1392 70.7623 69.5606 76.4167 69.8751C77.7989 70.0009 77.4848 68.9317 77.4848 68.3027C77.4848 67.0449 77.2335 65.6612 77.9246 64.4034C78.867 62.5795 75.977 61.7619 75.977 57.7996C76.1026 54.8436 73.5267 55.2839 72.2702 53.1455C71.5791 51.8876 70.888 51.07 70.888 49.4977C71.1393 40.504 68.9404 34.5292 67.8723 33.1455C67.0556 32.0134 66.2388 31.6361 67.0556 31.07C71.7676 27.9883 72.8356 25.1581 72.8356 25.1581C75.3487 19.309 77.5476 13.9631 80.689 11.699C81.2544 11.2587 82.8879 10.0009 83.8931 9.5606C86.7832 8.17695 88.291 7.42224 89.1077 6.60463C90.3643 5.34676 91.558 2.57947 90.2386 1.00714C88.6051 -1.06833 85.9664 0.566889 84.7099 1.32161C76.0398 6.47884 74.7832 15.3468 71.7676 20.504C69.3173 24.592 65.5477 27.6738 62.0922 27.9254C59.4535 28.177 56.6891 27.6109 53.9248 26.3531C47.1395 23.3971 43.4327 19.6235 42.4903 18.9317C40.7312 17.548 26.658 3.77444 15.0978 3.14551C15.0978 3.14551 13.7157 0.315317 13.3387 0.315317C12.522 0.18953 11.5796 2.01343 11.0141 2.265C10.3858 2.57947 9.44344 0.441103 8.878 0.566889Z" fill="#151515"/>
</svg>
