<svg width="104" height="70" viewBox="0 0 104 70" fill="none" xmlns="http://www.w3.org/2000/svg">
<path d="M51.2934 60.0662C51.2934 57.3032 53.5149 55.0859 56.283 55.0859C59.0511 55.0859 61.2715 57.3032 61.2715 60.0662C61.2715 62.8291 59.0511 65.0465 56.283 65.0465C53.5149 65.0465 51.2934 62.8291 51.2934 60.0662ZM71.5921 60.0662C71.5921 57.3032 73.8136 55.0859 76.5817 55.0859C79.3487 55.0859 81.5702 57.3032 81.5702 60.0662C81.5702 62.8291 79.3487 65.0465 76.5817 65.0465C73.8136 65.0465 71.5921 62.8291 71.5921 60.0662ZM24.5365 60.0662C24.5365 57.3032 26.7569 55.0859 29.526 55.0859C32.2931 55.0859 34.5146 57.3032 34.5146 60.0662C34.5146 62.8291 32.2931 65.0465 29.526 65.0465C26.7569 65.0465 24.5365 62.8291 24.5365 60.0662ZM4.23775 60.0662C4.23775 57.3032 6.45821 55.0859 9.22631 55.0859C11.9954 55.0859 14.2159 57.3032 14.2159 60.0662C14.2159 62.8291 11.9954 65.0465 9.22631 65.0465C6.45821 65.0465 4.23775 62.8291 4.23775 60.0662ZM45.2786 51.2657H40.9388V68.6957H45.2786V51.2657ZM14.1819 68.6957H18.5217V51.2657H14.1819V52.6647C12.7122 51.6415 10.9352 51.0619 9.02211 51.0619C4.03251 51.0619 0 55.0859 0 60.0662C0 65.0805 4.03251 69.0704 9.02211 69.0704C10.9352 69.0704 12.7122 68.4909 14.1819 67.4677V68.6957ZM81.5362 68.6957H85.876V51.2657H81.5362V52.6647C80.0665 51.6415 78.2896 51.0619 76.3764 51.0619C71.3868 51.0619 67.3554 55.0859 67.3554 60.0662C67.3554 65.0805 71.3868 69.0704 76.3764 69.0704C78.2896 69.0704 80.0665 68.4909 81.5362 67.4677V68.6957ZM87.4829 63.0329C87.619 66.5463 90.6264 69.0365 95.65 69.0365C99.7506 69.0365 103.133 67.2628 103.133 63.3407C103.133 60.6118 101.596 59.009 98.0417 58.3265L95.2736 57.7809C93.4966 57.4402 92.2662 57.0984 92.2662 56.0412C92.2662 54.8821 93.4625 54.3704 94.9662 54.3704C97.1537 54.3704 98.0416 55.4616 98.1097 56.7577H102.485C102.245 53.3462 99.5113 51.0619 95.1034 51.0619C90.5583 51.0619 87.8583 53.551 87.8583 56.7916C87.8583 60.7487 91.0709 61.3962 93.839 61.9078L96.1285 62.3175C97.7683 62.6243 98.4862 63.1019 98.4862 64.0572C98.4862 64.9096 97.6662 65.7619 95.7181 65.7619C92.8819 65.7619 91.9588 64.296 91.9248 63.0329H87.4829ZM34.4806 45.3312V52.6647C33.0109 51.6415 31.2339 51.0619 29.3208 51.0619C24.3312 51.0619 20.2987 55.0859 20.2987 60.0662C20.2987 65.0805 24.3312 69.0704 29.3208 69.0704C31.2339 69.0704 33.0109 68.4909 34.4806 67.4677V68.6957H38.8204V45.3312H34.4806ZM61.2375 45.3312V52.6647C59.7678 51.6415 57.9908 51.0619 56.0777 51.0619C51.0881 51.0619 47.0566 55.0859 47.0566 60.0662C47.0566 65.0805 51.0881 69.0704 56.0777 69.0704C57.9908 69.0704 59.7678 68.4909 61.2375 67.4677V68.6957H65.5773V45.3312H61.2375ZM11.2766 40.181L14.2159 45.3312H34.4806L26.4496 31.4825L11.2766 40.181ZM45.2786 49.6629V45.3312H61.2375L44.2195 15.9291L29.0124 24.6266L40.9388 45.3312V49.6629H45.2786ZM67.6967 45.3312H87.9954L61.7501 0L46.5781 8.73147L67.6967 45.3312Z" fill="#151515"/>
</svg>
