<svg width="204" height="66" viewBox="0 0 204 66" fill="none" xmlns="http://www.w3.org/2000/svg">
<path d="M6.41724 31.7393H1.32422C1.20722 31.7393 1.14819 31.6663 1.14819 31.5203L1.19214 0.637326C1.19214 0.519326 1.26611 0.461327 1.41211 0.461327H6.41724C6.56424 0.461327 6.63721 0.519326 6.63721 0.637326L6.59326 12.8623H13.3333V0.637326C13.3298 0.613491 13.3318 0.589168 13.3394 0.566288C13.3469 0.543409 13.3597 0.522601 13.3767 0.505518C13.3937 0.488435 13.4144 0.475548 13.4373 0.467877C13.4601 0.460206 13.4842 0.457963 13.5081 0.461327H18.5142C18.6602 0.461327 18.7332 0.519326 18.7332 0.637326L18.8213 31.5203C18.8255 31.5502 18.8226 31.5805 18.813 31.6091C18.8034 31.6377 18.7872 31.6636 18.7659 31.6848C18.7445 31.7061 18.7185 31.7221 18.6899 31.7315C18.6613 31.741 18.6309 31.7437 18.6011 31.7393H13.5522C13.5225 31.7435 13.4921 31.7407 13.4636 31.7311C13.4352 31.7216 13.4094 31.7056 13.3882 31.6844C13.367 31.6631 13.3508 31.6373 13.3413 31.6088C13.3318 31.5803 13.3291 31.5501 13.3333 31.5203V18.3063H6.59326V31.5203C6.59326 31.6663 6.53424 31.7393 6.41724 31.7393Z" fill="#040505"/>
<path d="M30.7642 32.1783C29.2144 32.187 27.6934 31.7612 26.3733 30.9493C25.0375 30.1409 23.9275 29.0082 23.1463 27.6563C22.3571 26.2731 21.9479 24.7058 21.9602 23.1133L22.0481 0.637321C22.0446 0.613391 22.0469 0.588965 22.0545 0.565997C22.0621 0.54303 22.0747 0.522159 22.0918 0.505054C22.1089 0.487949 22.1299 0.475084 22.1529 0.467491C22.1758 0.459897 22.2002 0.457785 22.2241 0.461322H27.2732C27.2971 0.457785 27.3215 0.459897 27.3445 0.467491C27.3675 0.475084 27.3884 0.487949 27.4055 0.505054C27.4226 0.522159 27.4355 0.54303 27.4431 0.565997C27.4507 0.588965 27.4528 0.613391 27.4492 0.637321V23.1133C27.4287 24.0683 27.7744 24.995 28.4153 25.7033C28.7071 26.0386 29.0683 26.3065 29.4739 26.4883C29.8795 26.6701 30.3197 26.7616 30.7642 26.7563C31.2188 26.7661 31.6701 26.677 32.0869 26.4951C32.5037 26.3133 32.8761 26.0432 33.1782 25.7033C33.8192 24.995 34.1649 24.0683 34.1443 23.1133V0.637321C34.1408 0.613391 34.1428 0.588965 34.1504 0.565997C34.158 0.54303 34.1709 0.522159 34.188 0.505054C34.2051 0.487949 34.2258 0.475084 34.2488 0.467491C34.2718 0.459897 34.2962 0.457785 34.3201 0.461322H39.3692C39.3931 0.457785 39.4175 0.459897 39.4405 0.467491C39.4634 0.475084 39.4844 0.487949 39.5015 0.505054C39.5186 0.522159 39.5315 0.54303 39.5391 0.565997C39.5467 0.588965 39.5487 0.613391 39.5452 0.637321L39.6331 23.1133C39.6472 24.7129 39.2382 26.2879 38.4473 27.6783C37.6699 29.0258 36.5681 30.1577 35.2422 30.9713C33.8905 31.7816 32.34 32.1995 30.7642 32.1783V32.1783Z" fill="#040505"/>
<path d="M48.4363 31.7393H43.3433C43.2259 31.7393 43.1672 31.6663 43.1672 31.5203L43.2551 0.637321C43.2516 0.613391 43.2536 0.588965 43.2612 0.565997C43.2688 0.54303 43.2817 0.522159 43.2988 0.505054C43.3159 0.487949 43.3369 0.475084 43.3599 0.467491C43.3828 0.459897 43.4072 0.457785 43.4312 0.461322H48.9192C48.9809 0.463298 49.0412 0.480378 49.0947 0.511064C49.1483 0.54175 49.1932 0.585103 49.2261 0.637321L53.3323 6.56332L57.4153 0.637321C57.4513 0.583084 57.5002 0.538621 57.5576 0.507907C57.615 0.477194 57.679 0.461189 57.7441 0.461322H63.2542C63.3862 0.461322 63.4541 0.519321 63.4541 0.637321L63.5422 31.5203C63.5422 31.6663 63.4832 31.7393 63.3662 31.7393H58.2732C58.1562 31.7393 58.0972 31.6663 58.0972 31.5203L58.0542 8.58232L53.3342 15.4313L48.6572 8.58232L48.6072 31.5203C48.6072 31.6663 48.5533 31.7393 48.4363 31.7393Z" fill="#040505"/>
<path d="M75.0652 10.8003L74.8022 9.13232L74.6023 10.8003L72.5833 23.4213H76.9072L75.0652 10.8003ZM65.8013 31.5213L71.3772 0.638325C71.3849 0.586637 71.4118 0.539767 71.4526 0.507122C71.4934 0.474478 71.5451 0.458475 71.5972 0.462324H78.1172C78.1692 0.458499 78.2206 0.474534 78.2612 0.507197C78.3019 0.539859 78.3287 0.586719 78.3362 0.638325L83.6931 31.5213C83.7081 31.6673 83.6491 31.7403 83.5171 31.7403H78.5342C78.5035 31.7439 78.4725 31.7409 78.4431 31.7314C78.4137 31.722 78.3866 31.7064 78.3638 31.6856C78.3409 31.6649 78.323 31.6395 78.3108 31.6111C78.2986 31.5828 78.2926 31.5522 78.2932 31.5213L77.8101 28.2283H71.6851L71.2021 31.5213C71.1871 31.6673 71.1142 31.7403 70.9822 31.7403H65.9822C65.8615 31.7397 65.8013 31.6663 65.8013 31.5203V31.5213Z" fill="#040505"/>
<path d="M91.3992 31.7393H86.8992C86.6652 31.7393 86.5481 31.637 86.5481 31.4323L86.5041 0.812322C86.4973 0.764633 86.5016 0.716 86.5168 0.670284C86.532 0.624567 86.5577 0.583026 86.5918 0.548957C86.6259 0.514888 86.6674 0.48923 86.7131 0.474017C86.7588 0.458805 86.8075 0.454458 86.8552 0.461322H90.9172L98.5171 18.1743L98.2971 0.812322C98.2971 0.578322 98.4306 0.461322 98.6973 0.461322H103.154C103.329 0.461322 103.417 0.578322 103.417 0.812322L103.461 31.4763C103.461 31.6513 103.388 31.7393 103.242 31.7393H99.2903L91.4961 15.1893L91.8262 31.3893C91.8195 31.6227 91.6772 31.7393 91.3992 31.7393Z" fill="#040505"/>
<path d="M114.999 32.1783C113.442 32.1891 111.914 31.7633 110.586 30.9493C109.265 30.1399 108.164 29.0162 107.381 27.6783C106.59 26.3038 106.181 24.743 106.195 23.1573V21.0943C106.195 20.9333 106.268 20.8523 106.415 20.8523H111.464C111.581 20.8523 111.64 20.9333 111.64 21.0943V23.1573C111.626 24.1021 111.981 25.0152 112.628 25.7033C112.93 26.0363 113.298 26.3021 113.71 26.4833C114.121 26.6645 114.565 26.757 115.015 26.755C115.464 26.7529 115.908 26.6562 116.317 26.4712C116.727 26.2862 117.093 26.0171 117.391 25.6813C118.031 24.9974 118.385 24.0941 118.379 23.1573C118.379 22.0593 117.662 21.1007 116.228 20.2813C115.994 20.1353 115.687 19.96 115.306 19.7553C114.94 19.5353 114.501 19.2863 113.989 19.0083C113.477 18.7303 112.98 18.4597 112.496 18.1963C112.014 17.9183 111.545 17.655 111.091 17.4063C109.564 16.5523 108.298 15.3007 107.425 13.7843C106.622 12.2717 106.214 10.5807 106.239 8.86833C106.219 7.27565 106.645 5.70902 107.469 4.34634C108.258 3.04413 109.358 1.958 110.669 1.18533C111.977 0.401479 113.475 -0.00841017 114.999 0.000334726C116.544 -0.013411 118.062 0.396443 119.389 1.18533C120.701 1.96911 121.796 3.06932 122.572 4.38533C123.383 5.73689 123.801 7.28746 123.78 8.86333V12.5503C123.784 12.5742 123.781 12.5986 123.774 12.6214C123.766 12.6443 123.753 12.6651 123.736 12.6821C123.719 12.6992 123.698 12.7121 123.675 12.7197C123.653 12.7274 123.628 12.7297 123.604 12.7263H118.555C118.531 12.7297 118.507 12.7274 118.484 12.7197C118.461 12.7121 118.441 12.6992 118.423 12.6821C118.406 12.6651 118.394 12.6443 118.386 12.6214C118.378 12.5986 118.376 12.5742 118.379 12.5503L118.335 8.86333C118.354 8.39064 118.277 7.91905 118.107 7.47747C117.937 7.03589 117.679 6.63362 117.348 6.29533C117.045 5.97892 116.68 5.72801 116.276 5.55809C115.872 5.38816 115.438 5.30282 114.999 5.30733C114.552 5.30347 114.109 5.39544 113.7 5.57707C113.291 5.7587 112.925 6.02577 112.628 6.36034C111.983 7.03105 111.628 7.92941 111.64 8.86034C111.61 9.7211 111.823 10.573 112.254 11.3183C112.855 12.1261 113.645 12.7744 114.554 13.2063C114.672 13.2643 114.942 13.4063 115.367 13.6453C115.792 13.8843 116.26 14.1453 116.772 14.4353C117.3 14.7133 117.775 14.9693 118.199 15.2033C118.623 15.4233 118.879 15.5543 118.967 15.6033C120.361 16.3505 121.569 17.4006 122.502 18.6763C123.41 19.9891 123.872 21.559 123.819 23.1543C123.85 24.7329 123.459 26.291 122.687 27.6683C121.916 29.0456 120.791 30.1923 119.428 30.9903C118.088 31.7833 116.556 32.1941 114.999 32.1783V32.1783Z" fill="#040505"/>
<path d="M64.007 65.9003H58.913C58.8832 65.9045 58.8531 65.9017 58.8246 65.8922C58.7961 65.8826 58.7701 65.8666 58.7489 65.8454C58.7277 65.8242 58.7118 65.7983 58.7023 65.7698C58.6927 65.7414 58.6898 65.7111 58.694 65.6813L58.7382 34.7983C58.7347 34.7745 58.7367 34.7502 58.7443 34.7273C58.7518 34.7044 58.7646 34.6836 58.7816 34.6665C58.7986 34.6494 58.8193 34.6366 58.8422 34.6289C58.865 34.6212 58.8891 34.619 58.913 34.6223H63.963C63.9869 34.619 64.0112 34.6212 64.0341 34.6289C64.0569 34.6366 64.0776 34.6494 64.0946 34.6665C64.1116 34.6836 64.1244 34.7044 64.132 34.7273C64.1395 34.7502 64.1416 34.7745 64.1381 34.7983L64.182 65.6813C64.186 65.8303 64.128 65.9003 64.007 65.9003Z" fill="#040505"/>
<path d="M73.0332 65.9003H68.5332C68.2992 65.9003 68.1821 65.798 68.1821 65.5933L68.1382 34.9733C68.1313 34.9256 68.1357 34.877 68.1509 34.8313C68.1661 34.7856 68.1917 34.744 68.2258 34.71C68.2599 34.6759 68.3014 34.6502 68.3472 34.635C68.3929 34.6198 68.4416 34.6155 68.4892 34.6223H72.5503L80.1501 52.3353L79.9311 34.9733C79.9311 34.7393 80.0623 34.6223 80.3313 34.6223H84.7871C84.9631 34.6223 85.0513 34.7393 85.0513 34.9733L85.0952 65.6373C85.0952 65.8123 85.0222 65.9003 84.8752 65.9003H80.9241L73.1301 49.3503L73.4592 65.5503C73.4532 65.7837 73.3112 65.9003 73.0332 65.9003Z" fill="#040505"/>
<path d="M98.5873 65.9003H93.5162C93.3829 65.9003 93.3163 65.8273 93.3163 65.6813V40.0473H87.4774C87.4477 40.0505 87.4176 40.047 87.3895 40.037C87.3614 40.0271 87.3359 40.011 87.3148 39.9899C87.2937 39.9688 87.2776 39.9432 87.2677 39.9151C87.2578 39.887 87.254 39.857 87.2572 39.8273L87.3014 34.8013C87.2981 34.7774 87.3003 34.7531 87.308 34.7302C87.3156 34.7074 87.3285 34.6866 87.3456 34.6695C87.3626 34.6525 87.3833 34.6396 87.4061 34.6319C87.429 34.6243 87.4535 34.622 87.4774 34.6253H104.556C104.717 34.6253 104.798 34.6843 104.798 34.8013V39.8273C104.798 39.9733 104.739 40.0473 104.622 40.0473H98.7174L98.7613 65.6843C98.7633 65.8303 98.7073 65.9003 98.5873 65.9003Z" fill="#040505"/>
<path d="M121.707 65.9003H107.174C107.057 65.9003 106.998 65.8273 106.998 65.6813L107.042 34.7983C107.039 34.7744 107.041 34.7501 107.049 34.7272C107.056 34.7044 107.069 34.6836 107.086 34.6665C107.103 34.6495 107.124 34.6366 107.147 34.6289C107.17 34.6213 107.194 34.619 107.218 34.6223H121.663C121.78 34.6223 121.839 34.6953 121.839 34.8413V39.8683C121.842 39.8922 121.84 39.9166 121.833 39.9394C121.825 39.9623 121.812 39.9831 121.795 40.0001C121.778 40.0172 121.757 40.0301 121.734 40.0377C121.712 40.0454 121.687 40.0477 121.663 40.0443H112.443V47.0703H121.663C121.687 47.067 121.712 47.0693 121.734 47.077C121.757 47.0846 121.778 47.0975 121.795 47.1145C121.812 47.1316 121.825 47.1524 121.833 47.1752C121.84 47.1981 121.842 47.2224 121.839 47.2463L121.883 52.3383C121.886 52.3622 121.884 52.3866 121.876 52.4094C121.869 52.4323 121.856 52.4531 121.839 52.4701C121.822 52.4872 121.801 52.5001 121.778 52.5077C121.755 52.5154 121.731 52.5177 121.707 52.5143H112.443V60.3723H121.707C121.825 60.3723 121.883 60.4453 121.883 60.5913V65.7273C121.886 65.751 121.884 65.7751 121.876 65.7977C121.868 65.8203 121.855 65.8407 121.838 65.8575C121.821 65.8742 121.8 65.8868 121.778 65.8942C121.755 65.9017 121.731 65.9038 121.707 65.9003V65.9003Z" fill="#040505"/>
<path d="M135.227 40.0003H131.363V47.0703H135.227C135.685 47.0698 136.138 46.9784 136.56 46.8014C136.982 46.6245 137.365 46.3654 137.686 46.0393C138.029 45.7223 138.303 45.3386 138.492 44.9118C138.68 44.485 138.78 44.024 138.784 43.5573C138.788 43.0906 138.697 42.628 138.516 42.1979C138.334 41.7678 138.067 41.3793 137.73 41.0563C137.407 40.7188 137.018 40.4509 136.588 40.2693C136.157 40.0877 135.694 39.9962 135.227 40.0003ZM131.144 65.9003H126.051C125.934 65.9003 125.875 65.8273 125.875 65.6813L125.963 34.7983C125.96 34.7744 125.962 34.75 125.969 34.727C125.977 34.704 125.99 34.6832 126.007 34.6661C126.024 34.649 126.045 34.6361 126.068 34.6285C126.091 34.6209 126.115 34.6188 126.139 34.6223H135.227C136.8 34.6083 138.347 35.0177 139.706 35.8073C141.043 36.5737 142.161 37.6695 142.955 38.9903C143.612 40.1145 144.018 41.368 144.143 42.6642C144.268 43.9604 144.11 45.2683 143.679 46.4973C143.39 47.3014 142.991 48.0618 142.494 48.7573C142.154 49.2628 141.748 49.7205 141.286 50.1183C142.882 51.8424 143.754 54.1134 143.723 56.4623L143.767 65.6813C143.771 65.7111 143.769 65.7414 143.759 65.7698C143.749 65.7983 143.733 65.8242 143.712 65.8454C143.691 65.8666 143.665 65.8826 143.637 65.8922C143.608 65.9017 143.578 65.9045 143.548 65.9003H138.454C138.337 65.9003 138.279 65.8563 138.279 65.7683V56.4653C138.285 55.9445 138.188 55.4277 137.991 54.9452C137.795 54.4627 137.505 54.0242 137.137 53.6553C136.778 53.2719 136.342 52.9683 135.858 52.7642C135.374 52.5601 134.852 52.4599 134.327 52.4703H131.363L131.32 65.6843C131.32 65.8303 131.261 65.9003 131.144 65.9003Z" fill="#040505"/>
<path d="M152.461 65.9003H147.961C147.727 65.9003 147.61 65.798 147.61 65.5933L147.566 34.9733C147.559 34.9256 147.564 34.877 147.579 34.8313C147.594 34.7856 147.62 34.744 147.654 34.71C147.688 34.6759 147.729 34.6502 147.775 34.635C147.821 34.6198 147.87 34.6155 147.917 34.6223H151.979L159.579 52.3353L159.359 34.9733C159.359 34.7393 159.493 34.6223 159.759 34.6223H164.216C164.391 34.6223 164.479 34.7393 164.479 34.9733L164.523 65.6373C164.523 65.8123 164.45 65.9003 164.303 65.9003H160.352L152.558 49.3503L152.888 65.5503C152.882 65.7837 152.739 65.9003 152.461 65.9003Z" fill="#040505"/>
<path d="M183.129 65.9003H168.596C168.479 65.9003 168.421 65.8273 168.421 65.6813L168.465 34.7983C168.462 34.7745 168.464 34.7502 168.471 34.7273C168.479 34.7044 168.492 34.6836 168.509 34.6665C168.526 34.6494 168.546 34.6366 168.569 34.6289C168.592 34.6212 168.616 34.619 168.64 34.6223H183.086C183.203 34.6223 183.261 34.6953 183.261 34.8413V39.8683C183.265 39.8922 183.263 39.9165 183.255 39.9394C183.248 39.9623 183.235 39.9831 183.218 40.0001C183.201 40.0172 183.18 40.0301 183.157 40.0378C183.134 40.0455 183.11 40.0477 183.086 40.0443H173.865V47.0703H183.086C183.11 47.067 183.134 47.0692 183.157 47.0769C183.18 47.0846 183.201 47.0974 183.218 47.1145C183.235 47.1316 183.248 47.1524 183.255 47.1753C183.263 47.1982 183.265 47.2225 183.261 47.2463L183.305 52.3383C183.309 52.3623 183.307 52.3867 183.299 52.4097C183.291 52.4326 183.279 52.4535 183.261 52.4706C183.244 52.4877 183.223 52.5006 183.2 52.5082C183.177 52.5158 183.153 52.5179 183.129 52.5143H173.865V60.3723H183.129C183.247 60.3723 183.305 60.4453 183.305 60.5913V65.7273C183.308 65.751 183.306 65.7751 183.298 65.7977C183.29 65.8203 183.277 65.8407 183.26 65.8575C183.243 65.8742 183.222 65.8868 183.2 65.8943C183.177 65.9017 183.153 65.9038 183.129 65.9003V65.9003Z" fill="#040505"/>
<path d="M196.894 65.9003H191.823C191.69 65.9003 191.623 65.8273 191.623 65.6813V40.0473H185.784C185.754 40.0505 185.724 40.047 185.696 40.037C185.668 40.0271 185.643 40.011 185.621 39.9899C185.6 39.9688 185.584 39.9432 185.574 39.9151C185.564 39.887 185.561 39.857 185.564 39.8273L185.608 34.8013C185.605 34.7774 185.607 34.7531 185.615 34.7302C185.622 34.7074 185.635 34.6866 185.652 34.6695C185.669 34.6525 185.69 34.6396 185.713 34.6319C185.736 34.6243 185.76 34.622 185.784 34.6253H202.864C203.025 34.6253 203.105 34.6843 203.105 34.8013V39.8273C203.105 39.9733 203.046 40.0473 202.929 40.0473H197.024L197.068 65.6843C197.07 65.8303 197.007 65.9003 196.894 65.9003Z" fill="#040505"/>
<path d="M4.41915 48.1283C4.64474 48.1278 4.86751 48.0784 5.07223 47.9836C5.27694 47.8889 5.45879 47.751 5.60519 47.5793C5.92574 47.2416 6.10468 46.7939 6.10519 46.3283L6.08321 39.2053C6.09519 38.7394 5.92583 38.287 5.61105 37.9433C5.4605 37.7753 5.27531 37.6421 5.06808 37.553C4.86084 37.4639 4.63659 37.421 4.41109 37.4273C4.18973 37.4242 3.97005 37.467 3.76607 37.553C3.5621 37.6391 3.37822 37.7665 3.22604 37.9273C3.06253 38.0956 2.93468 38.2949 2.84982 38.5136C2.76495 38.7323 2.7249 38.9659 2.73214 39.2003V46.3233C2.72535 46.7957 2.90239 47.2522 3.22604 47.5963C3.37496 47.7656 3.55873 47.9007 3.76461 47.9925C3.97049 48.0843 4.19374 48.1306 4.41915 48.1283V48.1283ZM4.41915 50.8393C3.64078 50.8446 2.87647 50.6315 2.2131 50.2243C1.55082 49.8182 0.997209 49.2571 0.600059 48.5893C0.19971 47.9036 -0.00747111 47.1223 0.00020585 46.3283L0.0221785 39.2053C0.00930906 38.4145 0.216934 37.6357 0.622032 36.9563C1.00902 36.2907 1.5599 35.7351 2.22213 35.3423C2.88602 34.9429 3.64581 34.7309 4.42062 34.729C5.19542 34.727 5.95615 34.9352 6.62203 35.3313C7.27731 35.7311 7.82091 36.2901 8.20211 36.9563C8.60507 37.6366 8.81277 38.4148 8.80221 39.2053L8.82418 46.3283C8.83224 47.118 8.62738 47.8952 8.23116 48.5783C7.84332 49.2518 7.29322 49.8176 6.63107 50.2243C5.9663 50.6334 5.19967 50.8466 4.41915 50.8393V50.8393Z" fill="#040505"/>
<path d="M13.1683 50.6194H10.6431C10.6283 50.6209 10.6135 50.6192 10.5994 50.6142C10.5854 50.6092 10.5726 50.6012 10.5621 50.5906C10.5515 50.5801 10.5434 50.5673 10.5384 50.5532C10.5334 50.5392 10.5317 50.5242 10.5333 50.5094L10.5772 35.0684C10.5756 35.0564 10.5768 35.0442 10.5806 35.0328C10.5845 35.0214 10.5909 35.011 10.5994 35.0025C10.608 34.9939 10.6183 34.9875 10.6297 34.9837C10.6411 34.9798 10.6534 34.9787 10.6654 34.9804H17.8653C17.9383 34.9804 17.9752 35.0094 17.9752 35.0684V37.6004C17.9768 37.6123 17.9758 37.6245 17.972 37.6359C17.9682 37.6473 17.9617 37.6577 17.9532 37.6663C17.9447 37.6748 17.9341 37.6812 17.9227 37.685C17.9112 37.6889 17.8992 37.69 17.8873 37.6884H13.2772V41.1784H17.8873C17.9453 41.1784 17.9752 41.2144 17.9752 41.2884L17.9971 43.8344C17.9971 43.8924 17.9603 43.9224 17.8873 43.9224H13.2772V50.5064C13.2792 50.5213 13.278 50.5366 13.2733 50.5509C13.2686 50.5653 13.2606 50.5784 13.2501 50.5893C13.2396 50.6002 13.2269 50.6085 13.2127 50.6137C13.1985 50.6189 13.1833 50.6209 13.1683 50.6194V50.6194Z" fill="#040505"/>
<path d="M30.6322 50.6194H28.0963C28.0303 50.6194 27.9962 50.5834 27.9962 50.5094V37.6914H25.0772C25.0624 37.6929 25.0473 37.6912 25.0333 37.6862C25.0192 37.6812 25.0065 37.6732 24.9959 37.6626C24.9854 37.6521 24.9775 37.6393 24.9725 37.6252C24.9675 37.6112 24.9658 37.5962 24.9674 37.5814L24.9893 35.0684C24.9877 35.0564 24.9887 35.0442 24.9925 35.0328C24.9963 35.0214 25.0028 35.011 25.0113 35.0025C25.0198 34.9939 25.0304 34.9875 25.0418 34.9837C25.0533 34.9798 25.0653 34.9787 25.0772 34.9804H33.6163C33.6973 34.9804 33.7371 35.0094 33.7371 35.0684V37.5814C33.7371 37.6544 33.7082 37.6914 33.6492 37.6914H30.6973L30.7193 50.5094C30.7203 50.5834 30.6902 50.6194 30.6322 50.6194Z" fill="#040505"/>
<path d="M37.4702 50.6194H34.9241C34.8651 50.6194 34.8362 50.5834 34.8362 50.5094L34.8582 35.0684C34.8582 35.0094 34.8943 34.9804 34.9683 34.9804H37.4683C37.5413 34.9804 37.5781 35.0094 37.5781 35.0684L37.5562 41.1814H40.9263V35.0684C40.9246 35.0564 40.9256 35.0442 40.9294 35.0328C40.9333 35.0214 40.9397 35.011 40.9482 35.0025C40.9568 34.9939 40.9671 34.9875 40.9785 34.9837C40.9899 34.9798 41.0022 34.9787 41.0142 34.9804H43.5142C43.5882 34.9804 43.6243 35.0094 43.6243 35.0684L43.6682 50.5094C43.6698 50.5242 43.6681 50.5392 43.6631 50.5532C43.6581 50.5673 43.65 50.5801 43.6394 50.5906C43.6289 50.6012 43.6161 50.6092 43.6021 50.6142C43.588 50.6192 43.5729 50.6209 43.5581 50.6194H41.0342C41.0193 50.6209 41.0043 50.6192 40.9902 50.6142C40.9762 50.6092 40.9634 50.6012 40.9529 50.5906C40.9423 50.5801 40.9344 50.5673 40.9294 50.5532C40.9245 50.5392 40.9225 50.5242 40.9241 50.5094V43.9004H37.5542V50.5064C37.5582 50.5834 37.5292 50.6194 37.4702 50.6194Z" fill="#040505"/>
<path d="M52.8601 50.6194H45.5933C45.5343 50.6194 45.5051 50.5834 45.5051 50.5094L45.5271 35.0684C45.5254 35.0564 45.5267 35.0442 45.5305 35.0328C45.5344 35.0214 45.5408 35.011 45.5493 35.0025C45.5578 34.9939 45.5682 34.9875 45.5796 34.9837C45.591 34.9798 45.6033 34.9787 45.6152 34.9804H52.8381C52.8961 34.9804 52.9253 35.0174 52.9253 35.0904V37.6004C52.9271 37.6122 52.9261 37.6244 52.9224 37.6358C52.9187 37.6473 52.9123 37.6577 52.9038 37.6663C52.8954 37.6748 52.8849 37.6813 52.8735 37.6851C52.8621 37.689 52.85 37.6901 52.8381 37.6884H48.2273V41.2004H52.8381C52.85 41.1986 52.8621 41.1998 52.8735 41.2036C52.8849 41.2074 52.8954 41.2139 52.9038 41.2224C52.9123 41.231 52.9187 41.2414 52.9224 41.2529C52.9261 41.2643 52.9271 41.2765 52.9253 41.2884L52.9473 43.8344C52.9489 43.8462 52.9476 43.8583 52.9438 43.8696C52.9401 43.881 52.9337 43.8913 52.9253 43.8998C52.9169 43.9083 52.9068 43.9148 52.8955 43.9187C52.8842 43.9226 52.872 43.9238 52.8601 43.9224H48.2273V47.8514H52.8601C52.9181 47.8514 52.9473 47.8874 52.9473 47.9604V50.5284C52.9496 50.5405 52.949 50.553 52.9456 50.5648C52.9421 50.5767 52.9358 50.5875 52.9272 50.5964C52.9187 50.6053 52.9082 50.6121 52.8965 50.6161C52.8848 50.6201 52.8723 50.6212 52.8601 50.6194V50.6194Z" fill="#040505"/>
<path d="M140.345 20.6132C140.347 19.6009 139.527 18.7789 138.515 18.7773C137.503 18.7757 136.681 19.595 136.679 20.6073C136.678 21.6197 137.497 22.4417 138.509 22.4433C139.522 22.4449 140.344 21.6256 140.345 20.6132Z" fill="#040505"/>
<path d="M147.433 20.6124C147.435 19.6001 146.616 18.7781 145.603 18.7764C144.591 18.7747 143.769 19.594 143.767 20.6063C143.766 21.6187 144.585 22.4407 145.597 22.4424C146.609 22.444 147.432 21.6247 147.433 20.6124Z" fill="#040505"/>
<path d="M142.12 3.86835C140.378 3.86808 138.654 4.21089 137.045 4.87719C135.435 5.54348 133.973 6.52023 132.742 7.75164C131.51 8.98305 130.533 10.445 129.866 12.054C129.2 13.6631 128.856 15.3877 128.856 17.1293H155.383C155.383 13.6121 153.985 10.2391 151.498 7.75228C149.011 5.26542 145.637 3.86835 142.12 3.86835V3.86835Z" fill="#040505"/>
<path d="M153.931 18.6643C153.903 21.7781 152.646 24.7546 150.434 26.9463C148.222 29.138 145.234 30.3677 142.12 30.3677C139.006 30.3677 136.018 29.138 133.806 26.9463C131.594 24.7546 130.337 21.7781 130.308 18.6643H128.856C128.856 22.182 130.254 25.5557 132.741 28.043C135.228 30.5304 138.602 31.9278 142.12 31.9278C145.637 31.9278 149.011 30.5304 151.498 28.043C153.986 25.5557 155.383 22.182 155.383 18.6643H153.931Z" fill="#040505"/>
<path d="M142.12 28.6003C144.756 28.5977 147.284 27.5494 149.148 25.6856C151.012 23.8217 152.061 21.2945 152.064 18.6583H150.607C150.607 20.9105 149.712 23.0705 148.12 24.6631C146.527 26.2556 144.367 27.1503 142.115 27.1503C139.863 27.1503 137.703 26.2556 136.11 24.6631C134.518 23.0705 133.623 20.9105 133.623 18.6583H132.173C132.175 21.2953 133.224 23.8236 135.089 25.6878C136.954 27.552 139.483 28.5995 142.12 28.6003V28.6003Z" fill="#040505"/>
</svg>
